<svg version="1.1" xmlns="http://www.w3.org/2000/svg" xmlns:xlink="http://www.w3.org/1999/xlink" width="755.1111111111111" height="538"><style xmlns="http://www.w3.org/1999/xhtml"></style><defs/><g transform="translate(0,0)"><g><rect fill="#FFFFFF" stroke="none" x="0" y="0" width="755.1111111111111" height="538"/></g><g transform="translate(0,0) matrix(1,0,0,1,440,20)"><g><g transform="translate(0,0) scale(1.9,0.5)"><g><g transform="scale(0.5263157894736842,2)"><path fill="#FFFFFF" stroke="none" d="M 24.999999999999996 0 L 164.99999999999997 0 C 178.8071187457698 0 190 11.19288125423016 190 25 C 190 38.80711874576984 178.8071187457698 50 164.99999999999997 50 L 24.999999999999996 50 C 11.19288125423016 50 0 38.80711874576984 0 25 C 0 11.19288125423016 11.19288125423016 0 24.999999999999996 0 Z"/><path fill="none" stroke="#333333" d="M 24.999999999999996 0 M 24.999999999999996 0 L 164.99999999999997 0 C 178.8071187457698 0 190 11.19288125423016 190 25 C 190 38.80711874576984 178.8071187457698 50 164.99999999999997 50 L 24.999999999999996 50 C 11.19288125423016 50 0 38.80711874576984 0 25 C 0 11.19288125423016 11.19288125423016 0 24.999999999999996 0 Z" stroke-miterlimit="10" stroke-width="2"/></g></g></g></g></g><g transform="matrix(1,0,0,1,450,24)"><g transform="translate(246,154) matrix(1,0,0,1,0,0) translate(-246,-154)"><g><rect fill="rgb(0,0,0)" stroke="none" x="0" y="0" width="171" height="42" fill-opacity="0"/></g></g><g transform="translate(246,154) matrix(1,0,0,1,0,0) translate(-246,-154)"><g><rect fill="rgb(0,0,0)" stroke="none" x="0" y="0" width="171" height="14" fill-opacity="0"/></g></g><g transform="translate(246,154) matrix(1,0,0,1,0,0) translate(-246,-154)"><g><rect fill="rgb(0,0,0)" stroke="none" x="36" y="0" width="99" height="14" fill-opacity="0"/></g></g><g transform="translate(246,154) matrix(1,0,0,1,0,0) translate(-246,-154)"><g><rect fill="rgb(0,0,0)" stroke="none" x="36" y="0" width="99" height="14" fill-opacity="0"/></g><text fill="rgb(0, 0, 0)" stroke="none" font-family="Arial" font-size="12px" font-style="normal" font-weight="bold" text-decoration="" line-height="14px" x="36" y="12">DATA</text><text fill="rgb(0, 0, 0)" stroke="none" font-family="Arial" font-size="12px" font-style="normal" font-weight="bold" text-decoration="" line-height="14px" x="71" y="12">SOURCING</text></g><g transform="translate(246,154) matrix(1,0,0,1,0,0) translate(-246,-154)"><g><rect fill="rgb(0,0,0)" stroke="none" x="0" y="14" width="171" height="14" fill-opacity="0"/></g></g><g transform="translate(246,154) matrix(1,0,0,1,0,0) translate(-246,-154)"><g><rect fill="rgb(0,0,0)" stroke="none" x="24" y="14" width="124" height="14" fill-opacity="0"/></g></g><g transform="translate(246,154) matrix(1,0,0,1,0,0) translate(-246,-154)"><g><rect fill="rgb(0,0,0)" stroke="none" x="24" y="14" width="124" height="14" fill-opacity="0"/></g><text fill="rgb(0, 0, 0)" stroke="none" font-family="Arial" font-size="12px" font-style="normal" font-weight="normal" text-decoration="" line-height="14px" x="24" y="26">Get</text><text fill="rgb(0, 0, 0)" stroke="none" font-family="Arial" font-size="12px" font-style="normal" font-weight="normal" text-decoration="" line-height="14px" x="46" y="26">the</text><text fill="rgb(0, 0, 0)" stroke="none" font-family="Arial" font-size="12px" font-style="normal" font-weight="normal" text-decoration="" line-height="14px" x="66" y="26">original</text><text fill="rgb(0, 0, 0)" stroke="none" font-family="Arial" font-size="12px" font-style="normal" font-weight="normal" text-decoration="" line-height="14px" x="108" y="26">dataset</text></g><g transform="translate(246,154) matrix(1,0,0,1,0,0) translate(-246,-154)"><g><rect fill="rgb(0,0,0)" stroke="none" x="0" y="28" width="171" height="14" fill-opacity="0"/></g></g><g transform="translate(246,154) matrix(1,0,0,1,0,0) translate(-246,-154)"><g><rect fill="rgb(0,0,0)" stroke="none" x="42" y="28" width="87" height="14" fill-opacity="0"/></g></g><g transform="translate(246,154) matrix(1,0,0,1,0,0) translate(-246,-154)"><g><rect fill="rgb(0,0,0)" stroke="none" x="42" y="28" width="87" height="14" fill-opacity="0"/></g><text fill="rgb(0, 0, 0)" stroke="none" font-family="Arial" font-size="12px" font-style="normal" font-weight="normal" text-decoration="" line-height="14px" x="90" y="40">:</text><text fill="rgb(0, 0, 0)" stroke="none" font-family="Arial" font-size="12px" font-style="normal" font-weight="normal" text-decoration="" line-height="14px" x="97" y="40">54110</text></g><g transform="translate(246,154) matrix(1,0,0,1,0,0) translate(-246,-154)"><g><rect fill="rgb(0,0,0)" stroke="none" x="42" y="28" width="48" height="14" fill-opacity="0"/></g><text fill="rgb(0, 0, 0)" stroke="none" font-family="Arial" font-size="12px" font-style="normal" font-weight="bold" text-decoration="" line-height="14px" x="42" y="40">Records</text></g></g><g transform="translate(0,0) matrix(1,0,0,1,340,90)"><g><g transform="translate(0,0) scale(3.8999999999999995,0.5)"><g><path fill="#FFFFFF" stroke="none" d="M 0 0 L 100 0 Q 100 0 100 0 L 100 100 Q 100 100 100 100 L 0 100 Q 0 100 0 100 L 0 0 Q 0 0 0 0 Z"/><g transform="scale(0.25641025641025644,2)"><path fill="none" stroke="none" d="M 0 0 L 389.99999999999994 0 Q 389.99999999999994 0 389.99999999999994 0 L 389.99999999999994 50 Q 389.99999999999994 50 389.99999999999994 50 L 0 50 Q 0 50 0 50 L 0 0 Q 0 0 0 0 Z"/><path fill="none" stroke="#333333" d="M 0 0 M 0 0 L 389.99999999999994 0 Q 389.99999999999994 0 389.99999999999994 0 L 389.99999999999994 50 Q 389.99999999999994 50 389.99999999999994 50 L 0 50 Q 0 50 0 50 L 0 0 Q 0 0 0 0 Z" stroke-miterlimit="10" stroke-width="2"/></g></g></g></g></g><g transform="matrix(1,0,0,1,356,94)"><g transform="translate(994,182) matrix(1,0,0,1,0,0) translate(-994,-182)"><g><rect fill="rgb(0,0,0)" stroke="none" x="0" y="0" width="359" height="42" fill-opacity="0"/></g></g><g transform="translate(994,182) matrix(1,0,0,1,0,0) translate(-994,-182)"><g><rect fill="rgb(0,0,0)" stroke="none" x="0" y="0" width="359" height="14" fill-opacity="0"/></g></g><g transform="translate(994,182) matrix(1,0,0,1,0,0) translate(-994,-182)"><g><rect fill="rgb(0,0,0)" stroke="none" x="148" y="0" width="63" height="14" fill-opacity="0"/></g></g><g transform="translate(994,182) matrix(1,0,0,1,0,0) translate(-994,-182)"><g><rect fill="rgb(0,0,0)" stroke="none" x="148" y="0" width="63" height="14" fill-opacity="0"/></g><text fill="rgb(0, 0, 0)" stroke="none" font-family="Arial" font-size="12px" font-style="normal" font-weight="bold" text-decoration="" line-height="14px" x="148" y="12">FILTERING</text></g><g transform="translate(994,182) matrix(1,0,0,1,0,0) translate(-994,-182)"><g><rect fill="rgb(0,0,0)" stroke="none" x="0" y="14" width="359" height="14" fill-opacity="0"/></g></g><g transform="translate(994,182) matrix(1,0,0,1,0,0) translate(-994,-182)"><g><rect fill="rgb(0,0,0)" stroke="none" x="22" y="14" width="315" height="14" fill-opacity="0"/></g></g><g transform="translate(994,182) matrix(1,0,0,1,0,0) translate(-994,-182)"><g><rect fill="rgb(0,0,0)" stroke="none" x="22" y="14" width="315" height="14" fill-opacity="0"/></g><text fill="rgb(0, 0, 0)" stroke="none" font-family="Arial" font-size="12px" font-style="normal" font-weight="normal" text-decoration="" line-height="14px" x="22" y="26">Include</text><text fill="rgb(0, 0, 0)" stroke="none" font-family="Arial" font-size="12px" font-style="normal" font-weight="normal" text-decoration="" line-height="14px" x="64" y="26">only</text><text fill="rgb(0, 0, 0)" stroke="none" font-family="Arial" font-size="12px" font-style="normal" font-weight="normal" text-decoration="" line-height="14px" x="89" y="26">the</text><text fill="rgb(0, 0, 0)" stroke="none" font-family="Arial" font-size="12px" font-style="normal" font-weight="normal" text-decoration="" line-height="14px" x="109" y="26">required</text><text fill="rgb(0, 0, 0)" stroke="none" font-family="Arial" font-size="12px" font-style="normal" font-weight="normal" text-decoration="" line-height="14px" x="157" y="26">fields</text><text fill="rgb(0, 0, 0)" stroke="none" font-family="Arial" font-size="12px" font-style="normal" font-weight="normal" text-decoration="" line-height="14px" x="188" y="26">for</text><text fill="rgb(0, 0, 0)" stroke="none" font-family="Arial" font-size="12px" font-style="normal" font-weight="normal" text-decoration="" line-height="14px" x="205" y="26">the</text><text fill="rgb(0, 0, 0)" stroke="none" font-family="Arial" font-size="12px" font-style="normal" font-weight="normal" text-decoration="" line-height="14px" x="225" y="26">analysis</text><text fill="rgb(0, 0, 0)" stroke="none" font-family="Arial" font-size="12px" font-style="normal" font-weight="normal" text-decoration="" line-height="14px" x="269" y="26">/</text><text fill="rgb(0, 0, 0)" stroke="none" font-family="Arial" font-size="12px" font-style="normal" font-weight="normal" text-decoration="" line-height="14px" x="272" y="26">visualization</text></g><g transform="translate(994,182) matrix(1,0,0,1,0,0) translate(-994,-182)"><g><rect fill="rgb(0,0,0)" stroke="none" x="0" y="28" width="359" height="14" fill-opacity="0"/></g></g><g transform="translate(994,182) matrix(1,0,0,1,0,0) translate(-994,-182)"><g><rect fill="rgb(0,0,0)" stroke="none" x="136" y="28" width="55" height="14" fill-opacity="0"/></g></g><g transform="translate(994,182) matrix(1,0,0,1,0,0) translate(-994,-182)"><g><rect fill="rgb(0,0,0)" stroke="none" x="136" y="28" width="55" height="14" fill-opacity="0"/></g><text fill="rgb(0, 0, 0)" stroke="none" font-family="Arial" font-size="12px" font-style="normal" font-weight="bold" text-decoration="" line-height="14px" x="136" y="40">Records</text><text fill="rgb(0, 0, 0)" stroke="none" font-family="Arial" font-size="12px" font-style="normal" font-weight="bold" text-decoration="" line-height="14px" x="184" y="40">:</text></g><g transform="translate(994,182) matrix(1,0,0,1,0,0) translate(-994,-182)"><g><rect fill="rgb(0,0,0)" stroke="none" x="191" y="28" width="33" height="14" fill-opacity="0"/></g></g><g transform="translate(994,182) matrix(1,0,0,1,0,0) translate(-994,-182)"><g><rect fill="rgb(0,0,0)" stroke="none" x="191" y="28" width="33" height="14" fill-opacity="0"/></g><text fill="rgb(0, 0, 0)" stroke="none" font-family="Arial" font-size="12px" font-style="normal" font-weight="normal" text-decoration="" line-height="14px" x="191" y="40">54110</text></g></g><g transform="matrix(1,0,0,1,530.5,65.5)"><g transform="translate(0,0)"><g transform="translate(-537,-54) translate(6.5,-11.5) matrix(1,0,0,1,0,0)"><g><path fill="none" stroke="#000000" d="M 535 70 L 535 73.33333333333334 Q 535 76.66666666666667 535 80 L 535 80 Q 535 83.33333333333333 535 86.66666666666666 L 535 90" stroke-miterlimit="10" stroke-width="2"/></g></g></g></g><g transform="translate(0,0) matrix(1,0,0,1,375,160)"><g><g transform="translate(0,0) scale(3.2,0.5)"><g><path fill="#FFFFFF" stroke="none" d="M 0 0 L 100 0 Q 100 0 100 0 L 100 100 Q 100 100 100 100 L 0 100 Q 0 100 0 100 L 0 0 Q 0 0 0 0 Z"/><g transform="scale(0.3125,2)"><path fill="none" stroke="none" d="M 0 0 L 320 0 Q 320 0 320 0 L 320 50 Q 320 50 320 50 L 0 50 Q 0 50 0 50 L 0 0 Q 0 0 0 0 Z"/><path fill="none" stroke="#333333" d="M 0 0 M 0 0 L 320 0 Q 320 0 320 0 L 320 50 Q 320 50 320 50 L 0 50 Q 0 50 0 50 L 0 0 Q 0 0 0 0 Z" stroke-miterlimit="10" stroke-width="2"/></g></g></g></g></g><g transform="matrix(1,0,0,1,385,164)"><g transform="translate(596,126) matrix(1,0,0,1,0,0) translate(-596,-126)"><g><rect fill="rgb(0,0,0)" stroke="none" x="0" y="0" width="300" height="42" fill-opacity="0"/></g></g><g transform="translate(596,126) matrix(1,0,0,1,0,0) translate(-596,-126)"><g><rect fill="rgb(0,0,0)" stroke="none" x="0" y="0" width="300" height="14" fill-opacity="0"/></g></g><g transform="translate(596,126) matrix(1,0,0,1,0,0) translate(-596,-126)"><g><rect fill="rgb(0,0,0)" stroke="none" x="119" y="0" width="62" height="14" fill-opacity="0"/></g></g><g transform="translate(596,126) matrix(1,0,0,1,0,0) translate(-596,-126)"><g><rect fill="rgb(0,0,0)" stroke="none" x="119" y="0" width="62" height="14" fill-opacity="0"/></g><text fill="rgb(0, 0, 0)" stroke="none" font-family="Arial" font-size="12px" font-style="normal" font-weight="bold" text-decoration="" line-height="14px" x="119" y="12">CLEANING</text></g><g transform="translate(596,126) matrix(1,0,0,1,0,0) translate(-596,-126)"><g><rect fill="rgb(0,0,0)" stroke="none" x="0" y="14" width="300" height="14" fill-opacity="0"/></g></g><g transform="translate(596,126) matrix(1,0,0,1,0,0) translate(-596,-126)"><g><rect fill="rgb(0,0,0)" stroke="none" x="3" y="14" width="140" height="14" fill-opacity="0"/></g><text fill="rgb(0, 0, 0)" stroke="none" font-family="Arial" font-size="12px" font-style="normal" font-weight="normal" text-decoration="" line-height="14px" x="3" y="26">Remove</text><text fill="rgb(0, 0, 0)" stroke="none" font-family="Arial" font-size="12px" font-style="normal" font-weight="normal" text-decoration="" line-height="14px" x="51" y="26">duplicate</text><text fill="rgb(0, 0, 0)" stroke="none" font-family="Arial" font-size="12px" font-style="normal" font-weight="normal" text-decoration="" line-height="14px" x="102" y="26">wos_id</text></g><g transform="translate(596,126) matrix(1,0,0,1,0,0) translate(-596,-126)"><g><rect fill="rgb(0,0,0)" stroke="none" x="143" y="14" width="154" height="14" fill-opacity="0"/></g><text fill="rgb(0, 0, 0)" stroke="none" font-family="Arial" font-size="12px" font-style="normal" font-weight="normal" text-decoration="" line-height="14px" x="143" y="26">and</text><text fill="rgb(0, 0, 0)" stroke="none" font-family="Arial" font-size="12px" font-style="normal" font-weight="normal" text-decoration="" line-height="14px" x="166" y="26">null</text><text fill="rgb(0, 0, 0)" stroke="none" font-family="Arial" font-size="12px" font-style="normal" font-weight="normal" text-decoration="" line-height="14px" x="188" y="26">research_addresses</text></g><g transform="translate(596,126) matrix(1,0,0,1,0,0) translate(-596,-126)"><g><rect fill="rgb(0,0,0)" stroke="none" x="0" y="28" width="300" height="14" fill-opacity="0"/></g></g><g transform="translate(596,126) matrix(1,0,0,1,0,0) translate(-596,-126)"><g><rect fill="rgb(0,0,0)" stroke="none" x="106" y="28" width="88" height="14" fill-opacity="0"/></g><text fill="rgb(0, 0, 0)" stroke="none" font-family="Arial" font-size="12px" font-style="normal" font-weight="normal" text-decoration="" line-height="14px" x="154" y="40">:</text><text fill="rgb(0, 0, 0)" stroke="none" font-family="Arial" font-size="12px" font-style="normal" font-weight="normal" text-decoration="" line-height="14px" x="161" y="40">32474</text></g><g transform="translate(596,126) matrix(1,0,0,1,0,0) translate(-596,-126)"><g><rect fill="rgb(0,0,0)" stroke="none" x="106" y="28" width="48" height="14" fill-opacity="0"/></g><text fill="rgb(0, 0, 0)" stroke="none" font-family="Arial" font-size="12px" font-style="normal" font-weight="bold" text-decoration="" line-height="14px" x="106" y="40">Records</text></g></g><g transform="translate(0,0) matrix(1,0,0,1,340,230)"><g><g transform="translate(0,0) scale(3.8999999999999995,0.7)"><g><path fill="#FFFFFF" stroke="none" d="M 0 0 L 100 0 Q 100 0 100 0 L 100 100 Q 100 100 100 100 L 0 100 Q 0 100 0 100 L 0 0 Q 0 0 0 0 Z"/><g transform="scale(0.25641025641025644,1.4285714285714286)"><path fill="none" stroke="none" d="M 0 0 L 389.99999999999994 0 Q 389.99999999999994 0 389.99999999999994 0 L 389.99999999999994 70 Q 389.99999999999994 70 389.99999999999994 70 L 0 70 Q 0 70 0 70 L 0 0 Q 0 0 0 0 Z"/><path fill="none" stroke="#333333" d="M 0 0 M 0 0 L 389.99999999999994 0 Q 389.99999999999994 0 389.99999999999994 0 L 389.99999999999994 70 Q 389.99999999999994 70 389.99999999999994 70 L 0 70 Q 0 70 0 70 L 0 0 Q 0 0 0 0 Z" stroke-miterlimit="10" stroke-width="2"/></g></g></g></g></g><g transform="matrix(1,0,0,1,351,237)"><g transform="translate(488,266) matrix(1,0,0,1,0,0) translate(-488,-266)"><g><rect fill="rgb(0,0,0)" stroke="none" x="0" y="0" width="369" height="56" fill-opacity="0"/></g></g><g transform="translate(488,266) matrix(1,0,0,1,0,0) translate(-488,-266)"><g><rect fill="rgb(0,0,0)" stroke="none" x="0" y="0" width="369" height="14" fill-opacity="0"/></g></g><g transform="translate(488,266) matrix(1,0,0,1,0,0) translate(-488,-266)"><g><rect fill="rgb(0,0,0)" stroke="none" x="130" y="0" width="109" height="14" fill-opacity="0"/></g></g><g transform="translate(488,266) matrix(1,0,0,1,0,0) translate(-488,-266)"><g><rect fill="rgb(0,0,0)" stroke="none" x="130" y="0" width="109" height="14" fill-opacity="0"/></g><text fill="rgb(0, 0, 0)" stroke="none" font-family="Arial" font-size="12px" font-style="normal" font-weight="bold" text-decoration="" line-height="14px" x="130" y="12">PRE</text><text fill="rgb(0, 0, 0)" stroke="none" font-family="Arial" font-size="12px" font-style="normal" font-weight="bold" text-decoration="" line-height="14px" x="155" y="12">-</text><text fill="rgb(0, 0, 0)" stroke="none" font-family="Arial" font-size="12px" font-style="normal" font-weight="bold" text-decoration="" line-height="14px" x="159" y="12">PROCESSING</text></g><g transform="translate(488,266) matrix(1,0,0,1,0,0) translate(-488,-266)"><g><rect fill="rgb(0,0,0)" stroke="none" x="0" y="14" width="369" height="14" fill-opacity="0"/></g></g><g transform="translate(488,266) matrix(1,0,0,1,0,0) translate(-488,-266)"><g><rect fill="rgb(0,0,0)" stroke="none" x="4" y="14" width="361" height="14" fill-opacity="0"/></g><text fill="rgb(0, 0, 0)" stroke="none" font-family="Arial" font-size="12px" font-style="normal" font-weight="normal" text-decoration="" line-height="14px" x="4" y="26">Using</text><text fill="rgb(0, 0, 0)" stroke="none" font-family="Arial" font-size="12px" font-style="normal" font-weight="normal" text-decoration="" line-height="14px" x="38" y="26">Sci2</text><text fill="rgb(0, 0, 0)" stroke="none" font-family="Arial" font-size="12px" font-style="normal" font-weight="normal" text-decoration="" line-height="14px" x="61" y="26"> -</text><text fill="rgb(0, 0, 0)" stroke="none" font-family="Arial" font-size="12px" font-style="normal" font-weight="normal" text-decoration="" line-height="14px" x="72" y="26">Bing</text><text fill="rgb(0, 0, 0)" stroke="none" font-family="Arial" font-size="12px" font-style="normal" font-weight="normal" text-decoration="" line-height="14px" x="99" y="26">Geocoder</text><text fill="rgb(0, 0, 0)" stroke="none" font-family="Arial" font-size="12px" font-style="normal" font-weight="normal" text-decoration="" line-height="14px" x="155" y="26">on</text><text fill="rgb(0, 0, 0)" stroke="none" font-family="Arial" font-size="12px" font-style="normal" font-weight="normal" text-decoration="" line-height="14px" x="172" y="26">research_addresses</text><text fill="rgb(0, 0, 0)" stroke="none" font-family="Arial" font-size="12px" font-style="normal" font-weight="normal" text-decoration="" line-height="14px" x="281" y="26">,</text><text fill="rgb(0, 0, 0)" stroke="none" font-family="Arial" font-size="12px" font-style="normal" font-weight="normal" text-decoration="" line-height="14px" x="287" y="26">add</text><text fill="rgb(0, 0, 0)" stroke="none" font-family="Arial" font-size="12px" font-style="normal" font-weight="normal" text-decoration="" line-height="14px" x="311" y="26">geo</text><text fill="rgb(0, 0, 0)" stroke="none" font-family="Arial" font-size="12px" font-style="normal" font-weight="normal" text-decoration="" line-height="14px" x="334" y="26">fields</text><text fill="rgb(0, 0, 0)" stroke="none" font-family="Arial" font-size="12px" font-style="normal" font-weight="normal" text-decoration="" line-height="14px" x="362" y="26">:</text></g><g transform="translate(488,266) matrix(1,0,0,1,0,0) translate(-488,-266)"><g><rect fill="rgb(0,0,0)" stroke="none" x="0" y="28" width="369" height="14" fill-opacity="0"/></g></g><g transform="translate(488,266) matrix(1,0,0,1,0,0) translate(-488,-266)"><g><rect fill="rgb(0,0,0)" stroke="none" x="86" y="28" width="197" height="14" fill-opacity="0"/></g><text fill="rgb(0, 0, 0)" stroke="none" font-family="Arial" font-size="12px" font-style="normal" font-weight="normal" text-decoration="" line-height="14px" x="86" y="40">latitude</text><text fill="rgb(0, 0, 0)" stroke="none" font-family="Arial" font-size="12px" font-style="normal" font-weight="normal" text-decoration="" line-height="14px" x="125" y="40">,</text><text fill="rgb(0, 0, 0)" stroke="none" font-family="Arial" font-size="12px" font-style="normal" font-weight="normal" text-decoration="" line-height="14px" x="132" y="40">longitude</text><text fill="rgb(0, 0, 0)" stroke="none" font-family="Arial" font-size="12px" font-style="normal" font-weight="normal" text-decoration="" line-height="14px" x="180" y="40">,</text><text fill="rgb(0, 0, 0)" stroke="none" font-family="Arial" font-size="12px" font-style="normal" font-weight="normal" text-decoration="" line-height="14px" x="187" y="40">city</text><text fill="rgb(0, 0, 0)" stroke="none" font-family="Arial" font-size="12px" font-style="normal" font-weight="normal" text-decoration="" line-height="14px" x="205" y="40">,</text><text fill="rgb(0, 0, 0)" stroke="none" font-family="Arial" font-size="12px" font-style="normal" font-weight="normal" text-decoration="" line-height="14px" x="211" y="40">state</text><text fill="rgb(0, 0, 0)" stroke="none" font-family="Arial" font-size="12px" font-style="normal" font-weight="normal" text-decoration="" line-height="14px" x="237" y="40">,</text><text fill="rgb(0, 0, 0)" stroke="none" font-family="Arial" font-size="12px" font-style="normal" font-weight="normal" text-decoration="" line-height="14px" x="244" y="40">country</text></g><g transform="translate(488,266) matrix(1,0,0,1,0,0) translate(-488,-266)"><g><rect fill="rgb(0,0,0)" stroke="none" x="0" y="42" width="369" height="14" fill-opacity="0"/></g></g><g transform="translate(488,266) matrix(1,0,0,1,0,0) translate(-488,-266)"><g><rect fill="rgb(0,0,0)" stroke="none" x="69" y="42" width="231" height="14" fill-opacity="0"/></g><text fill="rgb(0, 0, 0)" stroke="none" font-family="Arial" font-size="12px" font-style="normal" font-weight="normal" text-decoration="" line-height="14px" x="261" y="54">:</text><text fill="rgb(0, 0, 0)" stroke="none" font-family="Arial" font-size="12px" font-style="normal" font-weight="normal" text-decoration="" line-height="14px" x="268" y="54">31125</text></g><g transform="translate(488,266) matrix(1,0,0,1,0,0) translate(-488,-266)"><g><rect fill="rgb(0,0,0)" stroke="none" x="69" y="42" width="192" height="14" fill-opacity="0"/></g><text fill="rgb(0, 0, 0)" stroke="none" font-family="Arial" font-size="12px" font-style="normal" font-weight="bold" text-decoration="" line-height="14px" x="69" y="54">Records</text><text fill="rgb(0, 0, 0)" stroke="none" font-family="Arial" font-size="12px" font-style="normal" font-weight="bold" text-decoration="" line-height="14px" x="120" y="54">with</text><text fill="rgb(0, 0, 0)" stroke="none" font-family="Arial" font-size="12px" font-style="normal" font-weight="bold" text-decoration="" line-height="14px" x="148" y="54">valid</text><text fill="rgb(0, 0, 0)" stroke="none" font-family="Arial" font-size="12px" font-style="normal" font-weight="bold" text-decoration="" line-height="14px" x="178" y="54">geo</text><text fill="rgb(0, 0, 0)" stroke="none" font-family="Arial" font-size="12px" font-style="normal" font-weight="bold" text-decoration="" line-height="14px" x="200" y="54">-</text><text fill="rgb(0, 0, 0)" stroke="none" font-family="Arial" font-size="12px" font-style="normal" font-weight="bold" text-decoration="" line-height="14px" x="204" y="54">identifiers</text></g><g transform="translate(488,266) matrix(1,0,0,1,0,0) translate(-488,-266)"><g/></g></g><g transform="matrix(1,0,0,1,530.5,135.5)"><g transform="translate(0,0)"><g transform="translate(-531,-123) translate(0.5,-12.5) matrix(1,0,0,1,0,0)"><g><path fill="none" stroke="#000000" d="M 535 140 L 535 143.33333333333331 Q 535 146.66666666666666 535 150 L 535 150 Q 535 153.33333333333334 535 156.66666666666669 L 535 160" stroke-miterlimit="10" stroke-width="2"/></g></g></g></g><g transform="matrix(1,0,0,1,648.5,322.5)"><g transform="translate(0,0)"><g transform="translate(-651,-310) translate(2.5,-12.5) matrix(1,0,0,1,0,0)"><g><path fill="none" stroke="#000000" d="M 653 327 L 653 327 Q 653 327 653 327 L 653 327 Q 653 327 653 327 L 653 327" stroke-miterlimit="10" stroke-width="2"/></g></g></g></g><g transform="translate(0,0) matrix(1,0,0,1,350,320)"><g><g transform="translate(0,0) scale(3.71,0.5)"><g><path fill="#FFFFFF" stroke="none" d="M 0 0 L 100 0 Q 100 0 100 0 L 100 100 Q 100 100 100 100 L 0 100 Q 0 100 0 100 L 0 0 Q 0 0 0 0 Z"/><g transform="scale(0.2695417789757412,2)"><path fill="none" stroke="none" d="M 0 0 L 371 0 Q 371 0 371 0 L 371 50 Q 371 50 371 50 L 0 50 Q 0 50 0 50 L 0 0 Q 0 0 0 0 Z"/><path fill="none" stroke="#333333" d="M 0 0 M 0 0 L 371 0 Q 371 0 371 0 L 371 50 Q 371 50 371 50 L 0 50 Q 0 50 0 50 L 0 0 Q 0 0 0 0 Z" stroke-miterlimit="10" stroke-width="2"/></g></g></g></g></g><g transform="matrix(1,0,0,1,360,324)"><g transform="translate(324,84) matrix(1,0,0,1,0,0) translate(-324,-84)"><g><rect fill="rgb(0,0,0)" stroke="none" x="0" y="0" width="352" height="42" fill-opacity="0"/></g></g><g transform="translate(324,84) matrix(1,0,0,1,0,0) translate(-324,-84)"><g><rect fill="rgb(0,0,0)" stroke="none" x="0" y="0" width="352" height="14" fill-opacity="0"/></g></g><g transform="translate(324,84) matrix(1,0,0,1,0,0) translate(-324,-84)"><g><rect fill="rgb(0,0,0)" stroke="none" x="145" y="0" width="62" height="14" fill-opacity="0"/></g></g><g transform="translate(324,84) matrix(1,0,0,1,0,0) translate(-324,-84)"><g><rect fill="rgb(0,0,0)" stroke="none" x="145" y="0" width="62" height="14" fill-opacity="0"/></g><text fill="rgb(0, 0, 0)" stroke="none" font-family="Arial" font-size="12px" font-style="normal" font-weight="bold" text-decoration="" line-height="14px" x="145" y="12">VISUALIZE</text></g><g transform="translate(324,84) matrix(1,0,0,1,0,0) translate(-324,-84)"><g><rect fill="rgb(0,0,0)" stroke="none" x="0" y="14" width="352" height="14" fill-opacity="0"/></g></g><g transform="translate(324,84) matrix(1,0,0,1,0,0) translate(-324,-84)"><g><rect fill="rgb(0,0,0)" stroke="none" x="10" y="14" width="332" height="14" fill-opacity="0"/></g><text fill="rgb(0, 0, 0)" stroke="none" font-family="Arial" font-size="12px" font-style="normal" font-weight="normal" text-decoration="" line-height="14px" x="10" y="26">Import</text><text fill="rgb(0, 0, 0)" stroke="none" font-family="Arial" font-size="12px" font-style="normal" font-weight="normal" text-decoration="" line-height="14px" x="47" y="26">the</text><text fill="rgb(0, 0, 0)" stroke="none" font-family="Arial" font-size="12px" font-style="normal" font-weight="normal" text-decoration="" line-height="14px" x="67" y="26">data</text><text fill="rgb(0, 0, 0)" stroke="none" font-family="Arial" font-size="12px" font-style="normal" font-weight="normal" text-decoration="" line-height="14px" x="94" y="26">into</text><text fill="rgb(0, 0, 0)" stroke="none" font-family="Arial" font-size="12px" font-style="normal" font-weight="normal" text-decoration="" line-height="14px" x="116" y="26">Tableau</text><text fill="rgb(0, 0, 0)" stroke="none" font-family="Arial" font-size="12px" font-style="normal" font-weight="normal" text-decoration="" line-height="14px" x="162" y="26">and</text><text fill="rgb(0, 0, 0)" stroke="none" font-family="Arial" font-size="12px" font-style="normal" font-weight="normal" text-decoration="" line-height="14px" x="185" y="26">use</text><text fill="rgb(0, 0, 0)" stroke="none" font-family="Arial" font-size="12px" font-style="normal" font-weight="normal" text-decoration="" line-height="14px" x="208" y="26">Proportional</text><text fill="rgb(0, 0, 0)" stroke="none" font-family="Arial" font-size="12px" font-style="normal" font-weight="normal" text-decoration="" line-height="14px" x="276" y="26">Symbol</text><text fill="rgb(0, 0, 0)" stroke="none" font-family="Arial" font-size="12px" font-style="normal" font-weight="normal" text-decoration="" line-height="14px" x="319" y="26">Map</text></g><g transform="translate(324,84) matrix(1,0,0,1,0,0) translate(-324,-84)"><g><rect fill="rgb(0,0,0)" stroke="none" x="0" y="28" width="352" height="14" fill-opacity="0"/></g></g><g transform="translate(324,84) matrix(1,0,0,1,0,0) translate(-324,-84)"><g><rect fill="rgb(0,0,0)" stroke="none" x="24" y="28" width="304" height="14" fill-opacity="0"/></g><text fill="rgb(0, 0, 0)" stroke="none" font-family="Arial" font-size="12px" font-style="normal" font-weight="normal" text-decoration="" line-height="14px" x="24" y="40">Add</text><text fill="rgb(0, 0, 0)" stroke="none" font-family="Arial" font-size="12px" font-style="normal" font-weight="normal" text-decoration="" line-height="14px" x="48" y="40">color</text><text fill="rgb(0, 0, 0)" stroke="none" font-family="Arial" font-size="12px" font-style="normal" font-weight="normal" text-decoration="" line-height="14px" x="74" y="40">-</text><text fill="rgb(0, 0, 0)" stroke="none" font-family="Arial" font-size="12px" font-style="normal" font-weight="normal" text-decoration="" line-height="14px" x="78" y="40">coding</text><text fill="rgb(0, 0, 0)" stroke="none" font-family="Arial" font-size="12px" font-style="normal" font-weight="normal" text-decoration="" line-height="14px" x="117" y="40">and</text><text fill="rgb(0, 0, 0)" stroke="none" font-family="Arial" font-size="12px" font-style="normal" font-weight="normal" text-decoration="" line-height="14px" x="140" y="40">set</text><text fill="rgb(0, 0, 0)" stroke="none" font-family="Arial" font-size="12px" font-style="normal" font-weight="normal" text-decoration="" line-height="14px" x="160" y="40">data</text><text fill="rgb(0, 0, 0)" stroke="none" font-family="Arial" font-size="12px" font-style="normal" font-weight="normal" text-decoration="" line-height="14px" x="186" y="40">filters</text><text fill="rgb(0, 0, 0)" stroke="none" font-family="Arial" font-size="12px" font-style="normal" font-weight="normal" text-decoration="" line-height="14px" x="218" y="40">to</text><text fill="rgb(0, 0, 0)" stroke="none" font-family="Arial" font-size="12px" font-style="normal" font-weight="normal" text-decoration="" line-height="14px" x="232" y="40">make</text><text fill="rgb(0, 0, 0)" stroke="none" font-family="Arial" font-size="12px" font-style="normal" font-weight="normal" text-decoration="" line-height="14px" x="264" y="40">it</text><text fill="rgb(0, 0, 0)" stroke="none" font-family="Arial" font-size="12px" font-style="normal" font-weight="normal" text-decoration="" line-height="14px" x="274" y="40">interactive</text></g></g><g transform="matrix(1,0,0,1,530.5,205.5)"><g transform="translate(0,0)"><g transform="translate(-536,-202) translate(5.5,-3.5) matrix(1,0,0,1,0,0)"><g><path fill="none" stroke="#000000" d="M 535 210 L 535 213.33333333333331 Q 535 216.66666666666666 535 220 L 535 220 Q 535 223.33333333333334 535 226.66666666666669 L 535 230" stroke-miterlimit="10" stroke-width="2"/></g></g></g></g><g transform="matrix(1,0,0,1,530.5,295.5)"><g transform="translate(0,0)"><g transform="translate(-535,-287) translate(4.5,-8.5) matrix(1,0,0,1,0,0)"><g><path fill="none" stroke="#000000" d="M 535 300 L 535 303.3343748372904 Q 535 306.66874967458085 535 310.0031245118713 L 535 310.0031245118713 Q 535 313.3374993491617 535 316.6718741864521 L 535 320.00624902374255" stroke-miterlimit="10" stroke-width="2"/></g></g></g></g><g transform="translate(0,0) matrix(1,0,0,1,349.5,390)"><g><g transform="translate(0,0) scale(3.7199999999999993,0.6)"><g><path fill="#FFFFFF" stroke="none" d="M 0 0 L 100 0 Q 100 0 100 0 L 100 100 Q 100 100 100 100 L 0 100 Q 0 100 0 100 L 0 0 Q 0 0 0 0 Z"/><g transform="scale(0.2688172043010753,1.6666666666666667)"><path fill="none" stroke="none" d="M 0 0 L 371.99999999999994 0 Q 371.99999999999994 0 371.99999999999994 0 L 371.99999999999994 60 Q 371.99999999999994 60 371.99999999999994 60 L 0 60 Q 0 60 0 60 L 0 0 Q 0 0 0 0 Z"/><path fill="none" stroke="#333333" d="M 0 0 M 0 0 L 371.99999999999994 0 Q 371.99999999999994 0 371.99999999999994 0 L 371.99999999999994 60 Q 371.99999999999994 60 371.99999999999994 60 L 0 60 Q 0 60 0 60 L 0 0 Q 0 0 0 0 Z" stroke-miterlimit="10" stroke-width="2"/></g></g></g></g></g><g transform="matrix(1,0,0,1,360,399)"><g transform="translate(426,126) matrix(1,0,0,1,0,0) translate(-426,-126)"><g><rect fill="rgb(0,0,0)" stroke="none" x="0" y="0" width="351" height="42" fill-opacity="0"/></g></g><g transform="translate(426,126) matrix(1,0,0,1,0,0) translate(-426,-126)"><g><rect fill="rgb(0,0,0)" stroke="none" x="0" y="0" width="351" height="14" fill-opacity="0"/></g></g><g transform="translate(426,126) matrix(1,0,0,1,0,0) translate(-426,-126)"><g><rect fill="rgb(0,0,0)" stroke="none" x="146" y="0" width="59" height="14" fill-opacity="0"/></g></g><g transform="translate(426,126) matrix(1,0,0,1,0,0) translate(-426,-126)"><g><rect fill="rgb(0,0,0)" stroke="none" x="146" y="0" width="59" height="14" fill-opacity="0"/></g><text fill="rgb(0, 0, 0)" stroke="none" font-family="Arial" font-size="12px" font-style="normal" font-weight="bold" text-decoration="" line-height="14px" x="146" y="12">VALIDATE</text></g><g transform="translate(426,126) matrix(1,0,0,1,0,0) translate(-426,-126)"><g><rect fill="rgb(0,0,0)" stroke="none" x="0" y="14" width="351" height="14" fill-opacity="0"/></g></g><g transform="translate(426,126) matrix(1,0,0,1,0,0) translate(-426,-126)"><g><rect fill="rgb(0,0,0)" stroke="none" x="5" y="14" width="341" height="14" fill-opacity="0"/></g></g><g transform="translate(426,126) matrix(1,0,0,1,0,0) translate(-426,-126)"><g><rect fill="rgb(0,0,0)" stroke="none" x="5" y="14" width="341" height="14" fill-opacity="0"/></g><text fill="rgb(0, 0, 0)" stroke="none" font-family="Arial" font-size="12px" font-style="normal" font-weight="normal" text-decoration="" line-height="14px" x="5" y="26">Verify</text><text fill="rgb(0, 0, 0)" stroke="none" font-family="Arial" font-size="12px" font-style="normal" font-weight="normal" text-decoration="" line-height="14px" x="39" y="26">the</text><text fill="rgb(0, 0, 0)" stroke="none" font-family="Arial" font-size="12px" font-style="normal" font-weight="normal" text-decoration="" line-height="14px" x="59" y="26">accuracy</text><text fill="rgb(0, 0, 0)" stroke="none" font-family="Arial" font-size="12px" font-style="normal" font-weight="normal" text-decoration="" line-height="14px" x="110" y="26">of</text><text fill="rgb(0, 0, 0)" stroke="none" font-family="Arial" font-size="12px" font-style="normal" font-weight="normal" text-decoration="" line-height="14px" x="123" y="26">few</text><text fill="rgb(0, 0, 0)" stroke="none" font-family="Arial" font-size="12px" font-style="normal" font-weight="normal" text-decoration="" line-height="14px" x="145" y="26">sample</text><text fill="rgb(0, 0, 0)" stroke="none" font-family="Arial" font-size="12px" font-style="normal" font-weight="normal" text-decoration="" line-height="14px" x="187" y="26">data</text><text fill="rgb(0, 0, 0)" stroke="none" font-family="Arial" font-size="12px" font-style="normal" font-weight="normal" text-decoration="" line-height="14px" x="214" y="26">points</text><text fill="rgb(0, 0, 0)" stroke="none" font-family="Arial" font-size="12px" font-style="normal" font-weight="normal" text-decoration="" line-height="14px" x="250" y="26">with</text><text fill="rgb(0, 0, 0)" stroke="none" font-family="Arial" font-size="12px" font-style="normal" font-weight="normal" text-decoration="" line-height="14px" x="274" y="26">Google</text><text fill="rgb(0, 0, 0)" stroke="none" font-family="Arial" font-size="12px" font-style="normal" font-weight="normal" text-decoration="" line-height="14px" x="316" y="26">Maps</text></g><g transform="translate(426,126) matrix(1,0,0,1,0,0) translate(-426,-126)"><g><rect fill="rgb(0,0,0)" stroke="none" x="0" y="28" width="351" height="14" fill-opacity="0"/></g></g><g transform="translate(426,126) matrix(1,0,0,1,0,0) translate(-426,-126)"><g><rect fill="rgb(0,0,0)" stroke="none" x="62" y="28" width="227" height="14" fill-opacity="0"/></g></g><g transform="translate(426,126) matrix(1,0,0,1,0,0) translate(-426,-126)"><g><rect fill="rgb(0,0,0)" stroke="none" x="62" y="28" width="227" height="14" fill-opacity="0"/></g><text fill="rgb(0, 0, 0)" stroke="none" font-family="Arial" font-size="12px" font-style="normal" font-weight="normal" text-decoration="" line-height="14px" x="62" y="40">Cross</text><text fill="rgb(0, 0, 0)" stroke="none" font-family="Arial" font-size="12px" font-style="normal" font-weight="normal" text-decoration="" line-height="14px" x="97" y="40">check</text><text fill="rgb(0, 0, 0)" stroke="none" font-family="Arial" font-size="12px" font-style="normal" font-weight="normal" text-decoration="" line-height="14px" x="132" y="40">the</text><text fill="rgb(0, 0, 0)" stroke="none" font-family="Arial" font-size="12px" font-style="normal" font-weight="normal" text-decoration="" line-height="14px" x="152" y="40">data</text><text fill="rgb(0, 0, 0)" stroke="none" font-family="Arial" font-size="12px" font-style="normal" font-weight="normal" text-decoration="" line-height="14px" x="179" y="40">with</text><text fill="rgb(0, 0, 0)" stroke="none" font-family="Arial" font-size="12px" font-style="normal" font-weight="normal" text-decoration="" line-height="14px" x="203" y="40">the</text><text fill="rgb(0, 0, 0)" stroke="none" font-family="Arial" font-size="12px" font-style="normal" font-weight="normal" text-decoration="" line-height="14px" x="223" y="40">visualization</text></g></g><g transform="matrix(1,0,0,1,531,365.5)"><g transform="translate(0,0)"><g transform="translate(-537,-348) translate(6,-17.5) matrix(1,0,0,1,0,0)"><g><path fill="none" stroke="#000000" d="M 535.5 370 L 535.5 373.33333333333337 Q 535.5 376.6666666666667 535.5 380 L 535.5 380 Q 535.5 383.3333333333333 535.5 386.66666666666663 L 535.5 390" stroke-miterlimit="10" stroke-width="2"/></g></g></g></g><g transform="matrix(1,0,0,1,531,445.5)"><g transform="translate(0,0)"><g transform="translate(-536,-413) translate(5,-32.5) matrix(1,0,0,1,0,0)"><g><path fill="none" stroke="#000000" d="M 535.5 450 L 535.5 453.3343748372904 Q 535.5 456.66874967458085 535.5 460.0031245118713 L 535.5 460.0031245118713 Q 535.5 463.3374993491617 535.5 466.6718741864521 L 535.5 470.00624902374255" stroke-miterlimit="10" stroke-width="2"/></g></g></g></g><g transform="translate(0,0) matrix(1,0,0,1,395,470)"><g><g transform="translate(0,0) scale(2.8,0.4)"><g><g transform="scale(0.35714285714285715,2.5)"><path fill="#FFFFFF" stroke="none" d="M 20 0 L 260 0 C 271.04569499661585 0 280 8.954305003384128 280 20 C 280 31.045694996615875 271.04569499661585 40 260 40 L 20 40 C 8.954305003384128 40 0 31.045694996615875 0 20 C 0 8.954305003384128 8.954305003384128 0 20 0 Z"/><path fill="none" stroke="#333333" d="M 20 0 M 20 0 L 260 0 C 271.04569499661585 0 280 8.954305003384128 280 20 C 280 31.045694996615875 271.04569499661585 40 260 40 L 20 40 C 8.954305003384128 40 0 31.045694996615875 0 20 C 0 8.954305003384128 8.954305003384128 0 20 0 Z" stroke-miterlimit="10" stroke-width="2"/></g></g></g></g></g><g transform="matrix(1,0,0,1,409,462)"><g transform="translate(483,210) matrix(1,0,0,1,0,0) translate(-483,-210)"><g><rect fill="rgb(0,0,0)" stroke="none" x="0" y="0" width="254" height="56" fill-opacity="0"/></g></g><g transform="translate(483,210) matrix(1,0,0,1,0,0) translate(-483,-210)"><g><rect fill="rgb(0,0,0)" stroke="none" x="0" y="0" width="254" height="14" fill-opacity="0"/></g></g><g transform="translate(483,210) matrix(1,0,0,1,0,0) translate(-483,-210)"><g><rect fill="rgb(0,0,0)" stroke="none" x="125" y="0" width="4" height="14" fill-opacity="0"/></g></g><g transform="translate(483,210) matrix(1,0,0,1,0,0) translate(-483,-210)"><g><rect fill="rgb(0,0,0)" stroke="none" x="0" y="14" width="254" height="14" fill-opacity="0"/></g></g><g transform="translate(483,210) matrix(1,0,0,1,0,0) translate(-483,-210)"><g><rect fill="rgb(0,0,0)" stroke="none" x="102" y="14" width="50" height="14" fill-opacity="0"/></g><text fill="rgb(0, 0, 0)" stroke="none" font-family="Arial" font-size="12px" font-style="normal" font-weight="bold" text-decoration="" line-height="14px" x="102" y="26">DEPLOY</text></g><g transform="translate(483,210) matrix(1,0,0,1,0,0) translate(-483,-210)"><g><rect fill="rgb(0,0,0)" stroke="none" x="0" y="28" width="254" height="14" fill-opacity="0"/></g></g><g transform="translate(483,210) matrix(1,0,0,1,0,0) translate(-483,-210)"><g><rect fill="rgb(0,0,0)" stroke="none" x="6" y="28" width="242" height="14" fill-opacity="0"/></g><text fill="rgb(0, 0, 0)" stroke="none" font-family="Arial" font-size="12px" font-style="normal" font-weight="normal" text-decoration="" line-height="14px" x="6" y="40">Add</text><text fill="rgb(0, 0, 0)" stroke="none" font-family="Arial" font-size="12px" font-style="normal" font-weight="normal" text-decoration="" line-height="14px" x="31" y="40">data</text><text fill="rgb(0, 0, 0)" stroke="none" font-family="Arial" font-size="12px" font-style="normal" font-weight="normal" text-decoration="" line-height="14px" x="57" y="40">filters</text><text fill="rgb(0, 0, 0)" stroke="none" font-family="Arial" font-size="12px" font-style="normal" font-weight="normal" text-decoration="" line-height="14px" x="89" y="40">and</text><text fill="rgb(0, 0, 0)" stroke="none" font-family="Arial" font-size="12px" font-style="normal" font-weight="normal" text-decoration="" line-height="14px" x="113" y="40">export</text><text fill="rgb(0, 0, 0)" stroke="none" font-family="Arial" font-size="12px" font-style="normal" font-weight="normal" text-decoration="" line-height="14px" x="149" y="40">it</text><text fill="rgb(0, 0, 0)" stroke="none" font-family="Arial" font-size="12px" font-style="normal" font-weight="normal" text-decoration="" line-height="14px" x="159" y="40">for</text><text fill="rgb(0, 0, 0)" stroke="none" font-family="Arial" font-size="12px" font-style="normal" font-weight="normal" text-decoration="" line-height="14px" x="176" y="40">public</text><text fill="rgb(0, 0, 0)" stroke="none" font-family="Arial" font-size="12px" font-style="normal" font-weight="normal" text-decoration="" line-height="14px" x="211" y="40">access</text></g><g transform="translate(483,210) matrix(1,0,0,1,0,0) translate(-483,-210)"><g><rect fill="rgb(0,0,0)" stroke="none" x="0" y="42" width="254" height="14" fill-opacity="0"/></g></g><g transform="translate(483,210) matrix(1,0,0,1,0,0) translate(-483,-210)"><g><rect fill="rgb(0,0,0)" stroke="none" x="125" y="42" width="4" height="14" fill-opacity="0"/></g></g><g transform="translate(483,210) matrix(1,0,0,1,0,0) translate(-483,-210)"><g><rect fill="rgb(0,0,0)" stroke="none" x="125" y="42" width="4" height="14" fill-opacity="0"/></g></g></g></g></svg>